<svg xmlns="http://www.w3.org/2000/svg" xmlns:xlink="http://www.w3.org/1999/xlink" viewBox="0 0 105.1 78.9"><defs><style>.cls-1{stroke:#fff;stroke-miterlimit:10;stroke-opacity:0.5;fill:url(#linear-gradient);}.cls-2{fill:#3d4543;}.cls-3{fill:#fff;}</style><linearGradient id="linear-gradient" x1="67.21" y1="-17.28" x2="39.17" y2="-65.85" gradientTransform="translate(133.2 29.9) rotate(-152) scale(1.22)" gradientUnits="userSpaceOnUse"><stop offset="0" stop-color="#f0a055"/><stop offset="1" stop-color="#f0a055" stop-opacity="0"/></linearGradient></defs><title>cung</title><g id="Layer_2" data-name="Layer 2"><g id="Layer_1-2" data-name="Layer 1"><path class="cls-1" d="M53.2,10,.7,53.8A68.1,68.1,0,0,0,52.2,78.4a67.8,67.8,0,0,0,52.2-23.2Z"/><circle class="cls-2" cx="52.7" cy="13.5" r="12.8"/><path class="cls-3" d="M52.7,1.3a12.2,12.2,0,1,1,0,24.4,12.2,12.2,0,0,1,0-24.4m0-1.3A13.5,13.5,0,1,0,66.2,13.5,13.4,13.4,0,0,0,52.7,0Z"/><path class="cls-3" d="M51.6,16.9h2.3a2.3,2.3,0,0,0,2.3-2.3V11.2A1.2,1.2,0,0,0,55,10h0V5.5a1.1,1.1,0,0,0-1.1-1.2H51.6a1.2,1.2,0,0,0-1.2,1.2V10a1.2,1.2,0,0,0-1.1,1.2v3.4A2.3,2.3,0,0,0,51.6,16.9ZM52.7,18a2.4,2.4,0,0,0-2.3,2.3,2.3,2.3,0,0,0,2.3,2.3A2.3,2.3,0,0,0,55,20.3,2.3,2.3,0,0,0,52.7,18Z"/></g></g></svg>