<svg xmlns="http://www.w3.org/2000/svg" viewBox="0 0 377.6 638.9"><defs><style>.cls-1,.cls-3,.cls-5{fill:none;stroke-miterlimit:10;}.cls-1{stroke:#b5a36a;stroke-width:0.5px;stroke-dasharray:3.5 1.5;}.cls-2{fill:#3d4543;}.cls-3,.cls-5{stroke:#bfbaa4;}.cls-3{stroke-width:0.26px;}.cls-4{fill:#bfbaa4;}.cls-5{stroke-width:0.52px;}.cls-6{fill:#b5a36a;opacity:0.1;}.cls-7{fill:#d6daba;}.cls-8{fill:#96dee2;}</style></defs><title>toanha_1</title><g id="Layer_2" data-name="Layer 2"><g id="Layer_3" data-name="Layer 3"><line class="cls-1" y1="516.4" x2="102.1" y2="516.4"/><line class="cls-1" x1="49.8" y1="488.1" x2="102.1" y2="488.1"/><line class="cls-1" y1="459.9" x2="102.1" y2="459.9"/><line class="cls-1" x1="49.8" y1="431.7" x2="102.1" y2="431.7"/><line class="cls-1" y1="403.4" x2="102.1" y2="403.4"/><line class="cls-1" x1="49.8" y1="375.2" x2="102.1" y2="375.2"/><line class="cls-1" y1="347" x2="102.1" y2="347"/><line class="cls-1" x1="49.8" y1="318.8" x2="102.1" y2="318.8"/><line class="cls-1" y1="289.7" x2="102.1" y2="289.7"/><line class="cls-1" x1="49.8" y1="261.5" x2="102.1" y2="261.5"/><line class="cls-1" y1="233.2" x2="102.1" y2="233.2"/><line class="cls-1" x1="49.8" y1="205" x2="102.1" y2="205"/><line class="cls-1" y1="168.4" x2="102.1" y2="168.4"/><line class="cls-1" x1="48" y1="140.1" x2="102.1" y2="140.1"/><line class="cls-1" y1="111.1" x2="102.1" y2="111.1"/><line class="cls-1" x1="49.8" y1="82.8" x2="102.1" y2="82.8"/><line class="cls-1" y1="54.6" x2="102.1" y2="54.6"/><line class="cls-1" x1="328.1" y1="502.4" x2="274" y2="502.4"/><line class="cls-1" x1="377.6" y1="474.2" x2="274" y2="474.2"/><line class="cls-1" x1="328.1" y1="446" x2="274" y2="446"/><line class="cls-1" x1="377.6" y1="417.8" x2="274" y2="417.8"/><line class="cls-1" x1="328.1" y1="389.5" x2="274" y2="389.5"/><line class="cls-1" x1="377.6" y1="361.3" x2="274" y2="361.3"/><line class="cls-1" x1="328.1" y1="333.1" x2="274" y2="333.1"/><line class="cls-1" x1="377.6" y1="304" x2="274" y2="304"/><line class="cls-1" x1="328.1" y1="275.8" x2="274" y2="275.8"/><line class="cls-1" x1="377.6" y1="247.6" x2="274" y2="247.6"/><line class="cls-1" x1="328.1" y1="219.3" x2="274" y2="219.3"/><line class="cls-1" x1="328.1" y1="154.5" x2="274" y2="154.5"/><line class="cls-1" x1="377.6" y1="125.4" x2="274" y2="125.4"/><line class="cls-1" x1="328.1" y1="97.2" x2="274" y2="97.2"/><line class="cls-1" x1="377.6" y1="68.9" x2="274" y2="68.9"/><rect class="cls-2" x="115.7" y="176" width="0.7" height="21.23" transform="translate(232.1 373.3) rotate(180)"/><rect class="cls-2" x="119.9" y="176" width="1" height="21.23" transform="translate(240.8 373.3) rotate(180)"/><rect class="cls-3" x="261.1" y="190.4" width="10.9" height="6.21"/><rect class="cls-3" x="101.7" y="190.4" width="13.6" height="6.21"/><rect class="cls-4" x="261.1" y="196.6" width="11" height="1.04"/><rect class="cls-4" x="261" y="176" width="11.3" height="2.16"/><rect class="cls-3" x="272" y="190.4" width="5.1" height="6.45"/><rect class="cls-5" x="101.8" y="198.6" width="1.3" height="324.95"/><rect class="cls-3" x="272.9" y="30.2" width="4.2" height="16.71"/><rect class="cls-6" x="103.7" y="197.9" width="167.6" height="326.01"/><rect class="cls-6" x="103.7" y="47.9" width="167.6" height="127.77"/><rect class="cls-4" x="103.1" y="29.6" width="168.7" height="18.14"/><rect class="cls-4" x="73.7" y="597.3" width="217.2" height="40.56"/><polygon class="cls-7" points="86.7 565.6 88.9 565.6 88.9 560.9 83.6 560.9 86.7 565.6"/><polygon class="cls-7" points="274.7 565.6 272.5 565.6 272.5 560.9 277.8 560.9 274.7 565.6"/><rect class="cls-4" x="148.2" y="574.5" width="114.3" height="21.76"/><polygon class="cls-4" points="275.7 591.7 275.7 595.4 149 595.4 149 596.4 73.7 596.4 73.7 598.2 160.7 598.2 160.7 597.3 290.9 597.3 290.9 596.8 290.9 595.4 290.9 591.7 275.7 591.7"/><rect class="cls-4" x="73.7" y="612.1" width="163.5" height="1.08"/><rect class="cls-4" x="73.7" y="624.9" width="163.5" height="1.08"/><rect class="cls-4" x="73.7" y="637.9" width="217.6" height="1.08"/><rect class="cls-4" x="236.9" y="607.9" width="26.4" height="1.08"/><rect class="cls-4" x="236.9" y="620.7" width="26.4" height="1.08"/><rect class="cls-4" x="236.9" y="633.4" width="26.4" height="1.08"/><rect class="cls-4" x="263.3" y="624.9" width="27.9" height="1.08"/><rect class="cls-4" x="263.3" y="612.4" width="27.9" height="1.08"/><rect class="cls-4" x="290.9" y="591.7" width="3.2" height="47.26"/><rect class="cls-4" x="236.4" y="597.3" width="0.8" height="40.56"/><rect class="cls-4" x="262.9" y="597.3" width="0.8" height="40.56"/><rect class="cls-4" x="148.2" y="558.3" width="0.8" height="37.96"/><rect class="cls-4" x="240.4" y="558.3" width="0.8" height="16.2"/><polygon class="cls-4" points="252.7 523.9 249.4 523.9 142.4 523.9 138.1 523.9 101.8 523.9 101.8 526.4 142.4 526.4 142.4 524.6 249.4 524.6 249.4 526.7 272.6 526.7 272.6 523.9 252.7 523.9"/><rect class="cls-4" x="103.1" y="509.5" width="169.1" height="0.79"/><rect class="cls-4" x="107.7" y="575.3" width="0.7" height="21.01"/><rect class="cls-4" x="271.3" y="509.1" width="5.8" height="2.24"/><rect class="cls-3" x="273.4" y="504.9" width="3.5" height="4.2"/><line class="cls-3" x1="274.6" y1="504.9" x2="274.6" y2="509.1"/><line class="cls-3" x1="275.8" y1="504.9" x2="275.8" y2="509.1"/><rect class="cls-4" x="271.3" y="523.2" width="5.8" height="3.48"/><rect class="cls-3" x="273.4" y="519" width="3.5" height="4.2"/><line class="cls-3" x1="274.6" y1="519" x2="274.6" y2="523.2"/><line class="cls-3" x1="275.8" y1="519" x2="275.8" y2="523.2"/><rect class="cls-4" x="103.1" y="495.4" width="169.1" height="0.79"/><rect class="cls-4" x="271.3" y="494.9" width="5.8" height="2.24"/><rect class="cls-3" x="273.4" y="490.7" width="3.5" height="4.2"/><line class="cls-3" x1="274.6" y1="490.7" x2="274.6" y2="494.9"/><line class="cls-3" x1="275.8" y1="490.7" x2="275.8" y2="494.9"/><rect class="cls-4" x="103.1" y="481.2" width="169.1" height="0.79"/><rect class="cls-4" x="271.3" y="480.7" width="5.8" height="2.24"/><rect class="cls-3" x="273.4" y="476.5" width="3.5" height="4.2"/><line class="cls-3" x1="274.6" y1="476.5" x2="274.6" y2="480.7"/><line class="cls-3" x1="275.8" y1="476.5" x2="275.8" y2="480.7"/><rect class="cls-4" x="103.1" y="467" width="169.1" height="0.79"/><rect class="cls-4" x="271.3" y="466.6" width="5.8" height="2.24"/><rect class="cls-3" x="273.4" y="462.4" width="3.5" height="4.2"/><line class="cls-3" x1="274.6" y1="462.4" x2="274.6" y2="466.6"/><line class="cls-3" x1="275.8" y1="462.4" x2="275.8" y2="466.6"/><rect class="cls-4" x="103.1" y="452.7" width="169.1" height="0.79"/><rect class="cls-4" x="271.3" y="452.2" width="5.8" height="2.24"/><rect class="cls-3" x="273.4" y="448" width="3.5" height="4.2"/><line class="cls-3" x1="274.6" y1="448" x2="274.6" y2="452.2"/><line class="cls-3" x1="275.8" y1="448" x2="275.8" y2="452.2"/><rect class="cls-4" x="103.1" y="438.5" width="169.1" height="0.79"/><rect class="cls-4" x="271.3" y="438.1" width="5.8" height="2.24"/><rect class="cls-3" x="273.4" y="433.9" width="3.5" height="4.2"/><line class="cls-3" x1="274.6" y1="433.9" x2="274.6" y2="438.1"/><line class="cls-3" x1="275.8" y1="433.9" x2="275.8" y2="438.1"/><rect class="cls-4" x="103.1" y="424.3" width="169.1" height="0.79"/><rect class="cls-4" x="271.3" y="423.8" width="5.8" height="2.24"/><rect class="cls-3" x="273.4" y="419.6" width="3.5" height="4.2"/><line class="cls-3" x1="274.6" y1="419.6" x2="274.6" y2="423.8"/><line class="cls-3" x1="275.8" y1="419.6" x2="275.8" y2="423.8"/><rect class="cls-4" x="103.1" y="410.3" width="169.1" height="0.79"/><rect class="cls-4" x="271.3" y="409.9" width="5.8" height="2.24"/><rect class="cls-3" x="273.4" y="405.7" width="3.5" height="4.2"/><line class="cls-3" x1="274.6" y1="405.7" x2="274.6" y2="409.9"/><line class="cls-3" x1="275.8" y1="405.7" x2="275.8" y2="409.9"/><rect class="cls-4" x="103.1" y="395.9" width="169.1" height="0.79"/><rect class="cls-4" x="271.3" y="395.4" width="5.8" height="2.24"/><rect class="cls-3" x="273.4" y="391.2" width="3.5" height="4.2"/><line class="cls-3" x1="274.6" y1="391.2" x2="274.6" y2="395.4"/><line class="cls-3" x1="275.8" y1="391.2" x2="275.8" y2="395.4"/><rect class="cls-4" x="103.1" y="381.8" width="169.1" height="0.79"/><rect class="cls-4" x="271.3" y="381.4" width="5.8" height="2.24"/><rect class="cls-3" x="273.4" y="377.2" width="3.5" height="4.2"/><line class="cls-3" x1="274.6" y1="377.2" x2="274.6" y2="381.4"/><line class="cls-3" x1="275.8" y1="377.2" x2="275.8" y2="381.4"/><rect class="cls-4" x="103.1" y="367.6" width="169.1" height="0.79"/><rect class="cls-4" x="271.3" y="367.1" width="5.8" height="2.24"/><rect class="cls-3" x="273.4" y="363" width="3.5" height="4.2"/><line class="cls-3" x1="274.6" y1="363" x2="274.6" y2="367.1"/><line class="cls-3" x1="275.8" y1="363" x2="275.8" y2="367.1"/><rect class="cls-4" x="103.1" y="353.4" width="169.1" height="0.79"/><rect class="cls-4" x="271.3" y="352.9" width="5.8" height="2.24"/><rect class="cls-3" x="273.4" y="348.7" width="3.5" height="4.2"/><line class="cls-3" x1="274.6" y1="348.7" x2="274.6" y2="352.9"/><line class="cls-3" x1="275.8" y1="348.7" x2="275.8" y2="352.9"/><rect class="cls-4" x="103.1" y="339.1" width="169.1" height="0.79"/><rect class="cls-4" x="271.3" y="338.7" width="5.8" height="2.24"/><rect class="cls-3" x="273.4" y="334.5" width="3.5" height="4.2"/><line class="cls-3" x1="274.6" y1="334.5" x2="274.6" y2="338.7"/><line class="cls-3" x1="275.8" y1="334.5" x2="275.8" y2="338.7"/><rect class="cls-4" x="103.1" y="325.1" width="169.1" height="0.79"/><rect class="cls-4" x="271.3" y="324.6" width="5.8" height="2.24"/><rect class="cls-3" x="273.4" y="320.4" width="3.5" height="4.2"/><line class="cls-3" x1="274.6" y1="320.4" x2="274.6" y2="324.6"/><line class="cls-3" x1="275.8" y1="320.4" x2="275.8" y2="324.6"/><rect class="cls-4" x="103.1" y="310.8" width="169.1" height="0.79"/><rect class="cls-4" x="271.3" y="310.4" width="5.8" height="2.24"/><rect class="cls-3" x="273.4" y="306.2" width="3.5" height="4.2"/><line class="cls-3" x1="274.6" y1="306.2" x2="274.6" y2="310.4"/><line class="cls-3" x1="275.8" y1="306.2" x2="275.8" y2="310.4"/><rect class="cls-4" x="103.1" y="296.6" width="169.1" height="0.79"/><rect class="cls-4" x="271.3" y="296.1" width="5.8" height="2.24"/><rect class="cls-3" x="273.4" y="291.9" width="3.5" height="4.2"/><line class="cls-3" x1="274.6" y1="291.9" x2="274.6" y2="296.1"/><line class="cls-3" x1="275.8" y1="291.9" x2="275.8" y2="296.1"/><rect class="cls-4" x="103.1" y="282.6" width="169.1" height="0.79"/><rect class="cls-4" x="271.3" y="282.1" width="5.8" height="2.24"/><rect class="cls-3" x="273.4" y="277.9" width="3.5" height="4.2"/><line class="cls-3" x1="274.6" y1="277.9" x2="274.6" y2="282.1"/><line class="cls-3" x1="275.8" y1="277.9" x2="275.8" y2="282.1"/><rect class="cls-4" x="103.1" y="268.3" width="169.1" height="0.79"/><rect class="cls-4" x="271.3" y="267.9" width="5.8" height="2.24"/><rect class="cls-3" x="273.4" y="263.7" width="3.5" height="4.2"/><line class="cls-3" x1="274.6" y1="263.7" x2="274.6" y2="267.9"/><line class="cls-3" x1="275.8" y1="263.7" x2="275.8" y2="267.9"/><rect class="cls-4" x="103.1" y="254.1" width="169.1" height="0.79"/><rect class="cls-4" x="271.3" y="253.6" width="5.8" height="2.24"/><rect class="cls-3" x="273.4" y="249.4" width="3.5" height="4.2"/><line class="cls-3" x1="274.6" y1="249.4" x2="274.6" y2="253.6"/><line class="cls-3" x1="275.8" y1="249.4" x2="275.8" y2="253.6"/><rect class="cls-4" x="103.1" y="240" width="169.1" height="0.79"/><rect class="cls-4" x="271.3" y="239.5" width="5.8" height="2.24"/><rect class="cls-3" x="273.4" y="235.3" width="3.5" height="4.2"/><line class="cls-3" x1="274.6" y1="235.3" x2="274.6" y2="239.5"/><line class="cls-3" x1="275.8" y1="235.3" x2="275.8" y2="239.5"/><rect class="cls-4" x="103.1" y="225.8" width="169.1" height="0.79"/><rect class="cls-4" x="271.3" y="225.3" width="5.8" height="2.24"/><rect class="cls-3" x="273.4" y="221.1" width="3.5" height="4.2"/><line class="cls-3" x1="274.6" y1="221.1" x2="274.6" y2="225.3"/><line class="cls-3" x1="275.8" y1="221.1" x2="275.8" y2="225.3"/><rect class="cls-4" x="103.1" y="211.5" width="169.1" height="0.79"/><rect class="cls-4" x="271.3" y="211.1" width="5.8" height="2.24"/><rect class="cls-3" x="273.4" y="206.9" width="3.5" height="4.2"/><line class="cls-3" x1="274.6" y1="206.9" x2="274.6" y2="211.1"/><line class="cls-3" x1="275.8" y1="206.9" x2="275.8" y2="211.1"/><rect class="cls-4" x="103.1" y="175.2" width="169.1" height="0.79"/><rect class="cls-4" x="271.3" y="174.8" width="5.8" height="2.24"/><rect class="cls-3" x="273.4" y="170.6" width="3.5" height="4.2"/><line class="cls-3" x1="274.6" y1="170.6" x2="274.6" y2="174.8"/><line class="cls-3" x1="275.8" y1="170.6" x2="275.8" y2="174.8"/><rect class="cls-4" x="103.1" y="161" width="169.1" height="0.79"/><rect class="cls-4" x="271.3" y="160.6" width="5.8" height="2.24"/><rect class="cls-3" x="273.4" y="156.4" width="3.5" height="4.2"/><line class="cls-3" x1="274.6" y1="156.4" x2="274.6" y2="160.6"/><line class="cls-3" x1="275.8" y1="156.4" x2="275.8" y2="160.6"/><rect class="cls-4" x="103.1" y="146.8" width="169.1" height="0.79"/><rect class="cls-4" x="271.3" y="146.4" width="5.8" height="2.24"/><rect class="cls-3" x="273.4" y="142.2" width="3.5" height="4.2"/><line class="cls-3" x1="274.6" y1="142.2" x2="274.6" y2="146.4"/><line class="cls-3" x1="275.8" y1="142.2" x2="275.8" y2="146.4"/><rect class="cls-4" x="103.1" y="132.6" width="169.1" height="0.79"/><rect class="cls-4" x="271.3" y="132.2" width="5.8" height="2.24"/><rect class="cls-3" x="273.4" y="128" width="3.5" height="4.2"/><line class="cls-3" x1="274.6" y1="128" x2="274.6" y2="132.2"/><line class="cls-3" x1="275.8" y1="128" x2="275.8" y2="132.2"/><rect class="cls-4" x="103.1" y="118.4" width="169.1" height="0.79"/><rect class="cls-4" x="271.3" y="117.9" width="5.8" height="2.24"/><rect class="cls-3" x="273.4" y="113.7" width="3.5" height="4.2"/><line class="cls-3" x1="274.6" y1="113.7" x2="274.6" y2="117.9"/><line class="cls-3" x1="275.8" y1="113.7" x2="275.8" y2="117.9"/><rect class="cls-4" x="103.1" y="104.2" width="169.1" height="0.79"/><rect class="cls-4" x="271.3" y="103.7" width="5.8" height="2.24"/><rect class="cls-3" x="273.4" y="99.5" width="3.5" height="4.2"/><line class="cls-3" x1="274.6" y1="99.5" x2="274.6" y2="103.7"/><line class="cls-3" x1="275.8" y1="99.5" x2="275.8" y2="103.7"/><rect class="cls-4" x="103.1" y="90" width="169.1" height="0.79"/><rect class="cls-4" x="271.3" y="89.5" width="5.8" height="2.24"/><rect class="cls-3" x="273.4" y="85.3" width="3.5" height="4.2"/><line class="cls-3" x1="274.6" y1="85.3" x2="274.6" y2="89.5"/><line class="cls-3" x1="275.8" y1="85.3" x2="275.8" y2="89.5"/><rect class="cls-4" x="103.1" y="75.8" width="169.1" height="0.79"/><rect class="cls-4" x="271.3" y="75.3" width="5.8" height="2.24"/><rect class="cls-3" x="273.4" y="71.1" width="3.5" height="4.2"/><line class="cls-3" x1="274.6" y1="71.1" x2="274.6" y2="75.3"/><line class="cls-3" x1="275.8" y1="71.1" x2="275.8" y2="75.3"/><rect class="cls-4" x="103.1" y="61.6" width="169.1" height="0.79"/><rect class="cls-4" x="271.3" y="61.1" width="5.8" height="2.24"/><rect class="cls-3" x="273.4" y="56.9" width="3.5" height="4.2"/><line class="cls-3" x1="274.6" y1="56.9" x2="274.6" y2="61.1"/><line class="cls-3" x1="275.8" y1="56.9" x2="275.8" y2="61.1"/><rect class="cls-4" x="103.1" y="47.4" width="169.1" height="0.79"/><rect class="cls-4" x="271.3" y="46.9" width="5.8" height="2.24"/><polygon class="cls-4" points="272.2 29.6 103.1 29.6 103.2 28.5 272.3 28.5 272.2 29.6"/><rect class="cls-4" x="271.3" y="28" width="5.8" height="2.24"/><polygon class="cls-4" points="271.6 198.6 102.5 198.6 102.5 197.3 272.2 197.3 271.6 198.6"/><rect class="cls-4" x="271.3" y="196.8" width="5.9" height="2.24"/><rect class="cls-3" x="273.6" y="190.4" width="3.5" height="6.45"/><line class="cls-3" x1="275.8" y1="190.4" x2="275.8" y2="196.8"/><line class="cls-3" x1="275.8" y1="190.4" x2="275.8" y2="196.8"/><rect class="cls-2" x="272" y="190.4" width="1" height="6.37"/><rect class="cls-4" x="274.5" y="190.4" width="0.5" height="6.37"/><rect class="cls-4" x="117.8" y="538" width="130" height="0.75"/><rect class="cls-4" x="118.1" y="539" width="129.4" height="0.26"/><rect class="cls-4" x="147.8" y="524.6" width="101.6" height="13.34"/><rect class="cls-4" x="142.4" y="524.6" width="0.5" height="13.34"/><rect class="cls-4" x="142.4" y="524.6" width="5.4" height="0.92"/><rect class="cls-4" x="271.7" y="190.3" width="1.2" height="332.9"/><rect class="cls-4" x="273.2" y="30.2" width="0.5" height="144.67"/><rect class="cls-4" x="273.2" y="199" width="0.5" height="324.05"/><rect class="cls-4" x="271.7" y="28" width="1.2" height="146.99"/><polygon class="cls-4" points="111.1 0 101.7 0 101.7 28.5 111.1 28.5 277.1 28.5 277.1 19 111.1 0"/><rect class="cls-4" x="272.3" y="176.7" width="4.7" height="1.48"/><rect class="cls-4" x="103.1" y="190.5" width="0.4" height="6.1"/><rect class="cls-4" x="102.1" y="190.5" width="0.3" height="6.1"/><rect class="cls-4" x="103.8" y="190.5" width="0.3" height="6.1"/><rect class="cls-4" x="105.3" y="190.5" width="0.3" height="6.1"/><rect class="cls-4" x="110.9" y="190.5" width="0.7" height="6.1"/><rect class="cls-4" x="105.8" y="190.5" width="0.5" height="6.1"/><rect class="cls-4" x="101.7" y="196.6" width="13.6" height="0.69"/><rect class="cls-4" x="101.6" y="196.6" width="0.7" height="2"/><rect class="cls-4" x="103.4" y="194.3" width="11.9" height="2.23"/><rect class="cls-4" x="115.4" y="526.4" width="2.7" height="31.23"/><rect class="cls-4" x="148.1" y="524.6" width="3.3" height="32.94"/><rect class="cls-4" x="264" y="526.7" width="3.3" height="35.92"/><rect class="cls-4" x="179.2" y="539.3" width="3.3" height="18.33"/><rect class="cls-4" x="192.4" y="539.3" width="3.3" height="18.33"/><rect class="cls-4" x="224.2" y="539.3" width="4.6" height="18.33"/><path class="cls-4" d="M277.4,560.6a17.8,17.8,0,0,1-2.8,4.9h-1.7v-4.6h-.7v4.6h-3.8v-3.7h-.6v.5h-2.4l-1-4.7h-1.3v6.2H241.7v-6.2H136.1v6.2H98.7v-6.2H97.4l-1,4.7H94v-.5h-.6v3.7H89.6v-4.6h-.7v4.6H87.2a16.1,16.1,0,0,1-2.7-4.9l-1.2.4c0,.1,4.5,14.3,23.4,14.3H255.1c18.6,0,23.4-14.2,23.5-14.3Z"/><rect class="cls-8" x="98.7" y="557.6" width="37.4" height="6.26"/><rect class="cls-8" x="241.7" y="557.6" width="21.5" height="6.26" transform="translate(504.8 1121.4) rotate(-180)"/><polygon class="cls-4" points="155.8 176 154 176 121.5 176 121.5 176 115.3 176 102.4 176 102.4 174.6 100.9 174.6 100.9 176 100.9 178.3 102.4 178.3 115.3 178.3 115.3 197.3 121.5 197.3 154 197.3 155.8 197.3 261.1 197.3 261.1 176 155.8 176"/><rect class="cls-5" x="101.8" y="28.5" width="1.3" height="146.37"/><rect class="cls-6" x="103.3" y="133.4" width="168.4" height="13.42"/></g></g></svg>