<svg xmlns="http://www.w3.org/2000/svg" viewBox="0 0 25.9 24.1"><defs><style>.cls-1{fill:#3d4543;fill-opacity:0.85;}</style></defs><title>turnb</title><g id="Layer_2" data-name="Layer 2"><g id="Layer_1-2" data-name="Layer 1"><path class="cls-1" d="M24.5,15.4a12,12,0,0,1-11.6,8.7,11.8,11.8,0,0,1-8-3.1L2.2,23.8a1.4,1.4,0,0,1-.9.3H.8A1.2,1.2,0,0,1,0,22.8V15.1a1.3,1.3,0,0,1,1.3-1.3H9.1a1.2,1.2,0,0,1,1.1.8A1.4,1.4,0,0,1,10,16L6.8,19.2a9,9,0,0,0,6.1,2.4A9.5,9.5,0,0,0,22,14.7a1.3,1.3,0,1,1,2.5.7ZM25.9,1.3V9.1a1.2,1.2,0,0,1-1.3,1.2H16.8a1.3,1.3,0,0,1-1.2-.8,1.3,1.3,0,0,1,.3-1.4l3.2-3.2a9.7,9.7,0,0,0-6.2-2.3A9.5,9.5,0,0,0,3.8,9.4a1.3,1.3,0,0,1-1.6.9,1.3,1.3,0,0,1-.9-1.6A12.2,12.2,0,0,1,12.9,0a11.9,11.9,0,0,1,8,3.1L23.7.4A1.2,1.2,0,0,1,25.1.1,1.3,1.3,0,0,1,25.9,1.3Z"/></g></g></svg>