<svg xmlns="http://www.w3.org/2000/svg" viewBox="0 0 26.4 24.6"><defs><style>.cls-1{fill:#c9ba8b;stroke:#3d4543;stroke-miterlimit:10;stroke-width:0.5px;}</style></defs><title>turn</title><g id="Layer_2" data-name="Layer 2"><g id="Layer_1-2" data-name="Layer 1"><path class="cls-1" d="M24.8,15.7a12.2,12.2,0,0,1-11.6,8.7,12.1,12.1,0,0,1-8-3.1L2.5,24a1.3,1.3,0,0,1-1,.4H1a1.4,1.4,0,0,1-.7-1.2V15.3A1.2,1.2,0,0,1,1.5,14H9.3a1.5,1.5,0,0,1,1.2.8,1.4,1.4,0,0,1-.3,1.5L7,19.5a9.9,9.9,0,0,0,6.2,2.3A9.5,9.5,0,0,0,22.3,15a1.3,1.3,0,0,1,2.5.7ZM26.1,1.5V9.3a1.3,1.3,0,0,1-1.3,1.3H17.1a1.2,1.2,0,0,1-1.2-.8,1.2,1.2,0,0,1,.3-1.4l3.2-3.2A9.4,9.4,0,0,0,4.1,9.7a1.3,1.3,0,0,1-1.6.8,1.3,1.3,0,0,1-.9-1.6A12.1,12.1,0,0,1,13.2.3a11.8,11.8,0,0,1,8,3.1L23.9.6A1.7,1.7,0,0,1,25.3.3,1.3,1.3,0,0,1,26.1,1.5Z"/></g></g></svg>